<?xml version="1.0" encoding="UTF-8" standalone="yes"?>
<svg version="1.1" id="Layer_1" xmlns="http://www.w3.org/2000/svg" xmlns:xlink="http://www.w3.org/1999/xlink" x="0px" y="0px" viewBox="0 0 304.0248718 315" style="enable-background:new 0 0 304.0248718 315;" xml:space="preserve">
      <style type="text/css">.st0{fill:url(#SVGID_1_);}</style>
    <g id="color_index_g">
              <linearGradient id="SVGID_1_" gradientUnits="userSpaceOnUse" x1="0" y1="157.5" x2="304.0248718" y2="157.5">
                      <stop offset="0" style="stop-color:#0000FF"/>
            <stop offset="1" style="stop-color:#E177FF"/>
                  </linearGradient>
        <path class="st0" d="M304.0248718,35.9906425c-2.6132202,28.1558189-6.5943604,59.5176964-11.5871277,82.5060272&#x9;&#x9;c-11.401825-4.2052078-24.8065796-9.2358704-36.3166199-12.5712128c2.7618103-13.8726807,5.111145-29.0468369,7.0793152-45.9035912&#x9;&#x9;c-74.6967926-29.3328247-147.7109985-29.3328247-222.375824,0c3.2997932,27.50494,6.8393478,48.9022331,13.5233383,73.776062&#x9;&#x9;c76.8971863-24.1856995,156.4481964-17.9698486,231.7725372,12.7932587&#x9;&#x9;C265.6228943,219.0610046,220.9119568,280.2078552,152.0283203,315&#x9;&#x9;c-47.5766373-25.1138-85.0457077-60.3033142-109.2039337-106.5372467&#x9;&#x9;c11.1958199-4.1129913,25.3283463-9.4981537,36.5706558-12.6027832&#x9;&#x9;c17.4916992,30.9516602,41.4275894,55.6494141,72.6332779,75.1092987&#x9;&#x9;c39.5554199-24.4472961,67.9338531-58.9634399,85.2996216-101.1087189&#x9;&#x9;c-69.0504913-21.8139191-139.3440704-15.2043762-207.2016754,12.8250275C12.320199,134.7867889,4.8347616,89.7506104,0,35.9906425&#x9;&#x9;C100.1795425-11.9972887,203.8472443-11.9964733,304.0248718,35.9906425z"/>
          </g>
  </svg>